# xmcd
#
# Track frame offsets: 
#        150
#        17977
#        39882
#        61345
#        83242
#        103282
#        123312
#        142157
#        162465
#        183252
#        202772
#        223580
#        241347
#        256742
#        276785
#        294437
#        314225
#        336755
#
# Disc length: 4726 seconds
#
# Revision: 22
# Processed by: cddbd v1.5.2PL0 Copyright (c) Steve Scherf et al.
# Submitted via: ExactAudioCopyFreeDBPlugin 1.0
#
DISCID=0e127412
DTITLE=WHITNEY HOUSTON - THE GREATEST HITS
DYEAR=2000
DGENRE=Pop
TTITLE0=Saving All My Love For You
TTITLE1=Greatest Love Of All
TTITLE2=One Moment In Time
TTITLE3=I Have Nothing
TTITLE4=I Will Always Love You
TTITLE5=Run To You
TTITLE6=You Give Good Love
TTITLE7=All At Once
TTITLE8=Where Do Broken Hearts Go
TTITLE9=If You Say My Eyes Are Beautiful (duet with Jermaine Jackson)
TTITLE10=Didn't We Almost Have It All
TTITLE11=All The Man That I Need
TTITLE12=Exhale (Shoop Shoop)
TTITLE13=Count On Me (duet with CeCe Winans)
TTITLE14=I Believe In You And Me
TTITLE15=I Learned From The Best
TTITLE16=Same Script, Different Cast (duet with Deborah Cox)
TTITLE17=Could I Have This Kiss Forever (duet with Enrique Iglesias) (
TTITLE17=Metro Mix)
EXTD=
EXTT0=
EXTT1=
EXTT2=
EXTT3=
EXTT4=
EXTT5=
EXTT6=
EXTT7=
EXTT8=
EXTT9=
EXTT10=
EXTT11=
EXTT12=
EXTT13=
EXTT14=
EXTT15=
EXTT16=
EXTT17=
PLAYORDER=
